<svg width="1008" height="1001" fill="none" xmlns="http://www.w3.org/2000/svg"><path d="M447.552 29.128c-24.298 2.737-58.87 10.084-85.076 18.076-34.297 10.402-63.966 23.294-96.928 42.174-71.997 41.048-130.417 98.024-172.86 168.718-40.532 67.521-62.394 139.734-67.18 221.659-1.147 19.355 2.326 77.594 5.798 97.248 18.722 107.184 68.275 198.671 146.361 270.422 20.99 19.256 36.909 31.88 58.744 46.486 10.808 7.31 14.938 10.704 14.681 12.033-2.642 11.982 1.283 21.745 11.014 27.359 15.833 9.011 35.567-3.126 34.696-21.276-.958-19.789-23.402-29.43-38.936-16.643l-3.356 2.812-13.417-8.922c-24.109-16.128-46.68-34.203-66.692-53.621-77.522-75.508-124.806-169.64-139.029-276.737-2.784-21.116-4.293-65.321-2.974-85.562 3.824-57.099 16.107-107.748 38.562-158.837 24.703-56.143 57.85-104.082 101.263-146.656 69.653-68.216 155.546-111.768 255.01-129.305 23.128-4.098 81.5-7.14 104.394-5.416 22.779 1.62 22.997 1.609 23.246-1.913l.174-2.86-14.091-1.102c-27.514-2.023-65.84-1.269-93.404 1.863z" fill="#fff"/><path d="M451.359 79.346c-3.268.396-14.023 2.182-23.905 3.921-123.218 22.218-229.838 96.047-293.116 203.163-32.15 54.243-50.942 112.26-56.943 175.724-1.895 19.724-1.86 20.38 2.075 20.168 3.06-.166 3.164-.281 3.504-8.192.89-22.081 6.278-54.271 13.29-80.739 39.968-149.047 161.919-265.798 313.433-299.957 27.508-6.198 37.851-7.524 72.062-9.37 33.227-1.795 42.662-1.646 69.677 1.28C678.235 98.998 793.941 171.13 862.145 279.15l8.51 13.462-5.067 5.645c-3.826 4.262-5.22 6.859-6.077 11.29-1.936 10.847 3.676 21.396 13.785 25.893 6.516 2.937 17.52 1.685 23.313-2.684 5.483-4.023 9.498-12.899 9.109-20.113-.69-12.788-11.07-22.313-23.421-21.646l-5.137.277-3.76-6.703c-17.663-30.726-47.012-66.741-77.346-94.591-77.867-71.763-175.682-110.988-282.813-113.645-13.06-.282-47.72 1.37-61.882 3.011z" fill="#fff"/><path d="M457.996 141.359c-78.319 11.244-144.846 41.911-201.072 92.85-11.704 10.607-36.429 37.922-45.824 50.706-41.898 56.414-65.269 118.952-71.173 190.304-1.763 20.156.904 69.56 4.838 89.627 15.875 82.892 57.135 154.767 119.554 208.4 61.042 52.5 134.681 82.507 216.653 88.167 21.346 1.479 63.208-.781 84.708-4.573 83.394-14.696 155.352-54.426 210.775-116.174 54.911-61.062 85.712-134.197 91.922-218.171 1.339-17.831-.693-61.569-3.593-78.732-11.486-66.577-37.862-124.676-78.982-173.648-64.446-76.982-154.06-122.679-255.671-130.677-11.996-.887-61.367.353-72.135 1.921zm57.863 15.95c70.185 2.569 136.417 25.303 193.221 66.303 49.61 35.689 91.962 89.199 115.171 145.496 16.017 38.817 22.939 69.575 25.27 112.749 1.853 34.321.64 52.473-5.702 85.263-12.364 63.369-45.09 125.207-91.029 171.754-51.443 52.215-113.578 85.057-188.107 99.494-19.095 3.662-64.892 6.134-84.714 4.464-81.145-6.582-150.256-35.956-208.669-88.489-55.884-50.368-91.948-113.315-107.121-187.257-4.465-21.792-7.387-59.672-6.204-82.427 2.893-56.062 18.299-107.757 46.39-155.971 44.96-76.859 119.046-134.023 205.637-158.539 11.123-3.122 37.896-8.732 47.91-10.04 11.757-1.512 46.417-3.164 57.947-2.8z" fill="#fff"/><path d="M845.065 157.624c-16.913 9.573-15.488 33.941 2.351 41.528 5.497 2.334 7.264 2.568 12.809 1.721l6.31-.889 9.404 11.769c19.98 24.902 41.82 59.897 55.926 89.719 51.269 109.044 58.551 231.753 20.35 346.504-2.733 8.259-9.183 24.831-14.454 36.845-27.111 62.302-65.963 116.249-116.667 161.848-76.74 68.927-171.311 110.097-275.584 119.782l-18.759 1.78.177 3.279.177 3.279 18.322-1.756c72.957-7.008 135.593-26.503 196.96-61.386 46.053-26.164 82.499-55.646 118.799-95.972 75.177-83.642 115.924-183.732 121.471-298.254.84-16.927-1.939-68.408-4.493-85.261-13.4-85.766-46.819-162.669-98.384-226.424l-7.981-9.763 2.683-3.105c8.357-9.659 6.627-25.461-3.676-33.564-7.556-5.95-17.124-6.53-25.741-1.68z" fill="#fff"/><path d="M150.99 730.912c-3.294 1.931-5.666 4.69-7.956 8.979-3.099 5.539-3.253 6.753-2.565 13.403.653 5.994 1.426 8.144 4.256 11.828 6.23 7.776 14.247 10.083 27.936 7.81 1.634-.198 4.738 2.484 12.084 10.638 12.256 13.808 39.479 38.867 55.155 51.065 129.493 100.108 305.958 117.986 453.997 45.867 6.624-3.207 11.947-6.125 11.929-6.453-.133-.432-.756-1.823-1.586-2.984-1.435-2.225-1.545-2.219-13.503 3.689-35.019 17.346-74.784 30.016-117.675 37.593-22.04 3.931-70.679 6.556-92.905 5.016-32.123-2.103-59.22-6.559-87.472-14.133-78.748-21.071-151.55-66.031-206.057-127.435l-6.995-7.734 2.957-4.106c6.213-8.776 5.449-20.902-1.891-28.947-7.219-7.832-20.362-9.643-29.709-4.096z" fill="#fff"/></svg>