<svg width="624" height="903" viewBox="0 0 624 903" fill="none" xmlns="http://www.w3.org/2000/svg">
<path d="M0 0H277.5L385 227.5L557 385L612 596.5L463 903H0V0Z" fill="#15222C"/>
<path d="M621.779 571.339C613.219 657.389 575.119 738.039 527.779 809.309C517.479 824.829 506.649 839.999 495.409 854.849C489.609 862.499 483.699 870.069 477.689 877.559C474.999 880.919 462.379 900.699 458.609 900.699C744.259 425.869 412.479 311.789 395.719 306.379C380.689 296.269 364.609 287.329 349.089 278.269C295.779 247.149 247.179 199.899 221.559 143.229C219.229 138.059 217.089 132.819 215.149 127.499C209.299 111.469 205.269 94.7891 203.199 77.8291C202.319 70.6791 199.639 0.699219 206.219 0.699219H414.949C408.779 0.699219 395.609 33.169 393.729 37.489C381.329 66.099 375.989 97.839 381.109 128.769C384.789 150.989 393.029 169.609 404.129 186.039C432.019 227.269 477.939 254.669 514.849 290.279C547.029 321.319 574.119 357.859 593.079 398.419C618.279 452.339 627.659 512.189 621.779 571.339Z" fill="#D38E25"/>
<path opacity="0.1" d="M395.722 306.391C421.722 323.881 444.552 344.871 455.772 376.111C471.292 419.311 461.882 468.631 453.712 512.331C446.042 553.341 434.072 593.41 420.822 632.92C399.462 696.64 373.322 758.761 344.512 819.451C331.512 846.841 318.132 874.161 303.492 900.721C303.492 900.721 458.592 900.721 458.602 900.721C744.262 425.881 412.482 311.791 395.722 306.391Z" fill="white"/>
<path d="M367.698 902.95L359.278 900.91C361.288 897.95 365.078 892.53 367.068 889.56C389.878 855.35 409.048 823.12 425.688 791.03C441.458 760.62 454.068 732.02 464.248 703.61C473.718 677.19 480.818 651.33 485.358 626.75C489.618 603.7 491.728 581.2 491.648 559.86C491.568 539.98 489.578 520.62 485.738 502.32C482.188 485.4 476.958 468.96 470.208 453.46C464.028 439.26 456.418 425.53 447.598 412.63C439.618 400.96 430.468 389.72 420.398 379.22C411.458 369.89 401.608 360.96 391.128 352.67C382.058 345.49 372.368 338.69 362.338 332.44C352.238 326.15 341.968 320.53 331.828 315.74C324.348 312.21 316.568 308.94 309.038 305.78C299.048 301.58 288.728 297.24 278.818 292.19C261.388 283.3 244.988 273.01 230.078 261.63C208.858 245.42 190.418 226.81 175.258 206.32C161.988 188.38 150.998 168.69 142.588 147.79C135.478 130.12 130.128 111.36 126.678 92.04C123.918 76.59 122.368 60.7502 122.058 44.9502C121.838 33.6502 122.248 22.6701 123.278 12.3301C123.638 8.69008 124.118 4.38 124.918 0L133.158 0.720215C132.408 4.82021 131.588 9.64012 131.238 13.1201C130.238 23.1501 129.838 33.8 130.058 44.79C130.358 60.17 131.868 75.5901 134.558 90.6301C137.908 109.41 143.108 127.64 150.018 144.8C158.168 165.07 168.828 184.17 181.698 201.56C196.408 221.44 214.328 239.51 234.948 255.27C249.468 266.37 265.458 276.39 282.468 285.07C292.108 289.99 302.298 294.27 312.158 298.41C319.758 301.61 327.628 304.91 335.268 308.51C345.698 313.43 356.238 319.2 366.598 325.65C376.888 332.06 386.818 339.04 396.128 346.4C406.888 354.91 417.008 364.1 426.208 373.69C436.578 384.5 446.008 396.09 454.238 408.12C463.348 421.43 471.198 435.61 477.578 450.27C484.548 466.26 489.938 483.22 493.598 500.68C497.548 519.51 499.598 539.41 499.678 559.83C499.768 581.66 497.608 604.67 493.258 628.2C488.638 653.21 481.418 679.49 471.808 706.31C461.508 735.06 448.748 763.98 432.818 794.72C416.048 827.07 396.728 859.55 373.748 894.01C371.728 896.98 369.728 899.97 367.698 902.95Z" fill="#D38E25"/>
<path d="M379.59 359.531C390.586 359.531 399.5 350.617 399.5 339.621C399.5 328.625 390.586 319.711 379.59 319.711C368.594 319.711 359.68 328.625 359.68 339.621C359.68 350.617 368.594 359.531 379.59 359.531Z" fill="white"/>
<path d="M495.249 552.28C503.561 552.28 510.299 545.541 510.299 537.229C510.299 528.918 503.561 522.18 495.249 522.18C486.937 522.18 480.199 528.918 480.199 537.229C480.199 545.541 486.937 552.28 495.249 552.28Z" fill="white"/>
<path d="M463.589 730.181C469.68 730.181 474.619 725.243 474.619 719.151C474.619 713.059 469.68 708.121 463.589 708.121C457.497 708.121 452.559 713.059 452.559 719.151C452.559 725.243 457.497 730.181 463.589 730.181Z" fill="white"/>
</svg>
