<svg width="210" height="60" fill="none" xmlns="http://www.w3.org/2000/svg"><path d="M209.566 17.996v24l-20.783 12.005-20.784-12.005 41.567-24z" fill="#333F4D"/><path d="M209.566 17.996v24l-41.567-24L188.783 6l20.783 11.996z" fill="#D38E25"/><path d="M2.48 45.93L.95 42.21c1.06-.36 2.03-.78 2.91-1.26.9-.48 1.68-1.01 2.34-1.59.66-.58 1.17-1.21 1.53-1.89.36-.7.54-1.45.54-2.25 0-.84-.19-1.76-.57-2.76-.38-1-.84-2.02-1.38-3.06l3.93-1.89c.36.62.67 1.29.93 2.01.28.7.51 1.33.69 1.89.18.56.3.94.36 1.14.28.96.66 1.6 1.14 1.92.5.32 1.3.48 2.4.48.76 0 1.3.2 1.62.6.34.38.51.86.51 1.44 0 .62-.21 1.14-.63 1.56-.42.4-1.02.6-1.8.6-.82 0-1.54-.12-2.16-.36-.62-.24-1.12-.59-1.5-1.05-.36-.46-.59-1-.69-1.62l1.11.63a7.195 7.195 0 01-1.05 3c-.56.96-1.29 1.84-2.19 2.64-.9.8-1.91 1.5-3.03 2.1-1.12.6-2.28 1.08-3.48 1.44zM8.6 24.45c-.62 0-1.15-.21-1.59-.63-.42-.42-.63-.94-.63-1.56 0-.62.21-1.15.63-1.59.44-.44.97-.66 1.59-.66.6 0 1.11.22 1.53.66.44.44.66.97.66 1.59 0 .62-.22 1.14-.66 1.56-.42.42-.93.63-1.53.63zm6.906 14.7l.3-4.2c.5 0 .88-.1 1.14-.3.26-.2.52-.55.78-1.05s.62-1.18 1.08-2.04c.5-.96 1.02-1.76 1.56-2.4.54-.66 1.08-1.18 1.62-1.56.56-.4 1.11-.68 1.65-.84.56-.18 1.11-.27 1.65-.27.74 0 1.43.16 2.07.48.66.3 1.29.83 1.89 1.59.6.74 1.17 1.76 1.71 3.06.38.9.76 1.59 1.14 2.07.38.48.77.81 1.17.99.42.18.84.27 1.26.27.76 0 1.3.2 1.62.6.32.38.48.86.48 1.44 0 .62-.21 1.14-.63 1.56-.42.4-1.01.6-1.77.6-.98 0-1.87-.16-2.67-.48-.8-.32-1.43-.8-1.89-1.44l.87-.66c-.18.42-.45.86-.81 1.32a4.3 4.3 0 01-1.35 1.17c-.54.32-1.19.48-1.95.48-.5 0-1.09-.1-1.77-.3-.66-.18-1.35-.49-2.07-.93-.7-.46-1.35-1.08-1.95-1.86-.38.7-.8 1.25-1.26 1.65-.46.38-1 .65-1.62.81-.62.16-1.37.24-2.25.24zm6.87-6.24c.2.3.44.6.72.9.28.3.59.57.93.81.34.22.7.4 1.08.54.4.14.79.21 1.17.21.4 0 .73-.15.99-.45.26-.32.27-.79.03-1.41-.1-.26-.24-.55-.42-.87-.16-.34-.35-.66-.57-.96-.2-.3-.43-.55-.69-.75-.24-.2-.49-.3-.75-.3s-.53.08-.81.24c-.28.16-.56.41-.84.75-.28.32-.56.75-.84 1.29zm11.85 6.24l.3-4.2c1.2 0 2.12-.06 2.76-.18.64-.12 1.08-.34 1.32-.66.26-.34.39-.82.39-1.44 0-.56-.08-1.23-.24-2.01-.14-.78-.33-1.59-.57-2.43-.22-.84-.46-1.61-.72-2.31l4.14-1.14c.26.68.51 1.47.75 2.37.24.9.44 1.83.6 2.79.16.94.24 1.85.24 2.73 0 1.36-.22 2.47-.66 3.33-.44.84-1.06 1.49-1.86 1.95-.78.46-1.72.78-2.82.96-1.1.16-2.31.24-3.63.24zm7.41 6.96c-.58 0-1.08-.21-1.5-.63-.4-.4-.6-.88-.6-1.44 0-.58.2-1.08.6-1.5.42-.42.92-.63 1.5-.63.56 0 1.04.21 1.44.63.4.42.6.92.6 1.5 0 .56-.2 1.04-.6 1.44-.4.42-.88.63-1.44.63zm-5.19 0c-.58 0-1.08-.21-1.5-.63-.4-.4-.6-.88-.6-1.44 0-.58.2-1.08.6-1.5.42-.42.92-.63 1.5-.63.56 0 1.04.21 1.44.63.4.42.6.92.6 1.5 0 .56-.2 1.04-.6 1.44-.4.42-.88.63-1.44.63zm18.072-6.96c-1.86 0-3.3-.19-4.32-.57-1-.38-1.7-.97-2.1-1.77-.4-.82-.63-1.85-.69-3.09l-.63-16.68h4.2l.63 14.67c.04.92.14 1.61.3 2.07.16.46.46.77.9.93.46.16 1.13.24 2.01.24.76 0 1.3.2 1.62.6.34.38.51.86.51 1.44 0 .62-.21 1.14-.63 1.56-.42.4-1.02.6-1.8.6zm.04 0l.3-4.2c1.2 0 2.12-.06 2.76-.18.64-.12 1.08-.34 1.32-.66.26-.34.39-.82.39-1.44 0-.56-.08-1.23-.24-2.01-.14-.78-.33-1.59-.57-2.43-.22-.84-.46-1.61-.72-2.31l4.14-1.14c.26.68.51 1.47.75 2.37.24.9.44 1.83.6 2.79.16.94.24 1.85.24 2.73 0 1.36-.22 2.47-.66 3.33-.44.84-1.06 1.49-1.86 1.95-.78.46-1.72.78-2.82.96-1.1.16-2.31.24-3.63.24zm8.13-16.8a2.1 2.1 0 01-1.5-.6c-.4-.42-.6-.91-.6-1.47 0-.58.2-1.08.6-1.5.42-.42.92-.63 1.5-.63.56 0 1.04.21 1.44.63.4.42.6.92.6 1.5 0 .56-.2 1.05-.6 1.47-.4.4-.88.6-1.44.6zm-5.19-.03a2.1 2.1 0 01-1.5-.6c-.4-.42-.6-.91-.6-1.47 0-.58.2-1.08.6-1.5.42-.42.92-.63 1.5-.63.56 0 1.04.21 1.44.63.4.42.6.92.6 1.5 0 .56-.2 1.05-.6 1.47-.4.4-.88.6-1.44.6zm24.724 23.64c-1.44 0-2.74-.17-3.9-.51-1.16-.32-2.16-.81-3-1.47a6.708 6.708 0 01-1.95-2.46c-.44-.96-.66-2.08-.66-3.36 0-.46.04-1 .12-1.62.08-.62.23-1.32.45-2.1.22-.8.55-1.69.99-2.67l3.69 1.29c-.22.62-.41 1.19-.57 1.71-.16.5-.28.97-.36 1.41-.08.42-.12.84-.12 1.26 0 .78.18 1.5.54 2.16.36.66.94 1.18 1.74 1.56.8.4 1.85.6 3.15.6 1.2 0 2.2-.14 3-.42.8-.26 1.43-.63 1.89-1.11.46-.46.79-1 .99-1.62.2-.62.3-1.29.3-2.01 0-.56-.07-1.19-.21-1.89-.12-.7-.3-1.46-.54-2.28-.24-.84-.51-1.72-.81-2.64l4.2-1.08c.28 1.16.5 2.06.66 2.7.18.64.32 1.12.42 1.44.2.6.44 1.06.72 1.38.3.3.63.5.99.6.38.1.8.15 1.26.15.38 0 .73-.06 1.05-.18.32-.12.61-.37.87-.75.28-.4.53-1.01.75-1.83.22-.82.42-1.95.6-3.39l3.96.63a76.424 76.424 0 00-.45 2.94c-.06.44-.09.8-.09 1.08 0 .26.07.5.21.72.16.22.44.4.84.54.4.14.97.21 1.71.21.92 0 1.59-.19 2.01-.57.44-.4.66-1 .66-1.8 0-.46-.01-.95-.03-1.47-.02-.54-.06-1.14-.12-1.8-.04-.68-.12-1.45-.24-2.31l3.87-.3c.16 1.86.34 3.34.54 4.44.2 1.1.46 1.93.78 2.49.34.54.77.9 1.29 1.08.52.16 1.17.24 1.95.24.76 0 1.3.2 1.62.6.34.38.51.86.51 1.44 0 .62-.21 1.14-.63 1.56-.42.4-1.02.6-1.8.6-.84 0-1.65-.11-2.43-.33-.78-.22-1.47-.61-2.07-1.17-.58-.58-1.02-1.39-1.32-2.43l1.14.18c-.26 1.08-.7 1.89-1.32 2.43-.6.54-1.28.9-2.04 1.08-.76.16-1.52.24-2.28.24-1 0-1.89-.15-2.67-.45-.76-.3-1.36-.73-1.8-1.29-.42-.56-.62-1.24-.6-2.04h1.02c-.3 1.1-.71 1.92-1.23 2.46s-1.1.9-1.74 1.08c-.64.16-1.29.24-1.95.24-.52 0-1.02-.05-1.5-.15-.48-.1-.92-.26-1.32-.48-.38-.24-.71-.55-.99-.93-.28-.4-.47-.88-.57-1.44l1.11 1.2c-.04 1.36-.31 2.57-.81 3.63a7.71 7.71 0 01-2.1 2.7c-.88.74-1.95 1.3-3.21 1.68-1.24.4-2.63.6-4.17.6zm32.893-6.81l.3-4.2c.88 0 1.57-.06 2.07-.18.52-.12.89-.34 1.11-.66.22-.34.33-.82.33-1.44 0-.56-.08-1.23-.24-2.01-.14-.78-.33-1.59-.57-2.43-.24-.84-.48-1.61-.72-2.31l4.14-1.14c.24.68.48 1.47.72 2.37.24.9.44 1.83.6 2.79.18.94.27 1.85.27 2.73 0 1.1-.14 2.03-.42 2.79-.28.74-.67 1.36-1.17 1.86-.48.48-1.06.86-1.74 1.14-.66.26-1.39.44-2.19.54-.8.1-1.63.15-2.49.15zm4.32-16.86c-.62 0-1.15-.21-1.59-.63-.42-.42-.63-.94-.63-1.56 0-.62.21-1.15.63-1.59.44-.44.97-.66 1.59-.66.6 0 1.11.22 1.53.66.44.44.66.97.66 1.59 0 .62-.22 1.14-.66 1.56-.42.42-.93.63-1.53.63zm6.912 23.61l-.87-4.2c1.42-.18 2.66-.4 3.72-.66 1.06-.24 1.95-.58 2.67-1.02.72-.44 1.26-1.04 1.62-1.8.36-.78.54-1.78.54-3 0-1.18-.18-2.12-.54-2.82-.36-.7-.84-1.05-1.44-1.05-.42 0-.77.15-1.05.45-.28.28-.49.62-.63 1.02-.12.38-.18.72-.18 1.02 0 .18.05.37.15.57.1.2.32.37.66.51s.87.22 1.59.24c.74.02 1.74-.05 3-.21h5.04c.76 0 1.3.2 1.62.6.34.38.51.86.51 1.44 0 .62-.21 1.14-.63 1.56-.42.4-1.02.6-1.8.6h-8.25c-1.26 0-2.34-.15-3.24-.45-.9-.3-1.59-.78-2.07-1.44-.48-.68-.72-1.58-.72-2.7 0-.9.15-1.8.45-2.7.32-.9.76-1.72 1.32-2.46.56-.76 1.21-1.36 1.95-1.8.76-.46 1.58-.69 2.46-.69 1.2 0 2.25.37 3.15 1.11.9.74 1.6 1.72 2.1 2.94.52 1.22.78 2.55.78 3.99 0 2.26-.48 4.18-1.44 5.76s-2.33 2.8-4.11 3.66c-1.78.88-3.9 1.39-6.36 1.53zm14.022-6.75l.3-4.2h4.29c.42 0 .79-.02 1.11-.06.32-.06.58-.15.78-.27.22-.12.38-.27.48-.45.1-.18.15-.39.15-.63s-.13-.62-.39-1.14c-.24-.54-.77-1.19-1.59-1.95-.44-.4-.92-.82-1.44-1.26-.5-.46-.98-.89-1.44-1.29-.46-.42-.84-.79-1.14-1.11-.3-.32-.45-.55-.45-.69 0-.3.02-.63.06-.99.04-.36.1-.69.18-.99.1-.3.23-.52.39-.66.34-.32.84-.69 1.5-1.11.68-.44 1.49-.91 2.43-1.41.94-.52 1.99-1.06 3.15-1.62 1.18-.58 2.44-1.16 3.78-1.74l1.71 3.66c-1.1.48-2.14.95-3.12 1.41-.98.44-1.9.88-2.76 1.32-.84.42-1.62.84-2.34 1.26-.7.4-1.32.8-1.86 1.2l.39-2.22c1.7 1.3 3.05 2.47 4.05 3.51 1.02 1.04 1.78 1.97 2.28 2.79.5.8.83 1.52.99 2.16.16.62.24 1.17.24 1.65s-.12 1-.36 1.56c-.22.54-.63 1.06-1.23 1.56-.58.5-1.4.91-2.46 1.23-1.06.32-2.42.48-4.08.48h-3.6z" fill="#151718"/></svg>