<svg width="189" height="60" fill="none" xmlns="http://www.w3.org/2000/svg"><path d="M65.87 39H62.6c-1.58 0-2.8-.42-3.66-1.26-.86-.84-1.29-2.05-1.29-3.63V24.6c0-1.58.43-2.79 1.29-3.63.86-.84 2.08-1.26 3.66-1.26h3.27c1.56 0 2.77.43 3.63 1.29.88.84 1.32 2.04 1.32 3.6v1.41c0 .44-.22.66-.66.66h-2.52c-.42 0-.63-.22-.63-.66v-1.23c0-.64-.14-1.09-.42-1.35-.26-.28-.71-.42-1.35-.42H63.2c-.62 0-1.07.14-1.35.42-.26.26-.39.71-.39 1.35v9.15c0 .64.13 1.1.39 1.38.28.26.73.39 1.35.39h2.04c.64 0 1.09-.13 1.35-.39.28-.28.42-.74.42-1.38V32.7c0-.44.21-.66.63-.66h2.52c.44 0 .66.22.66.66v1.41c0 1.56-.44 2.77-1.32 3.63-.86.84-2.07 1.26-3.63 1.26zm15.243 0h-2.67c-1.58 0-2.8-.42-3.66-1.26-.86-.84-1.29-2.05-1.29-3.63v-5.52c0-1.58.43-2.79 1.29-3.63.86-.84 2.08-1.26 3.66-1.26h2.67c1.56 0 2.77.43 3.63 1.29.88.84 1.32 2.04 1.32 3.6v5.52c0 1.56-.44 2.77-1.32 3.63-.86.84-2.07 1.26-3.63 1.26zm-2.1-3.27h1.53c.64 0 1.09-.13 1.35-.39.28-.26.42-.71.42-1.35v-5.28c0-.64-.14-1.09-.42-1.35-.26-.26-.71-.39-1.35-.39h-1.53c-.64 0-1.09.13-1.35.39s-.39.71-.39 1.35v5.28c0 .64.13 1.09.39 1.35s.71.39 1.35.39zM92.236 39h-2.55c-.42 0-.63-.21-.63-.63V24.33c0-.42.21-.63.63-.63h2.55c.42 0 .63.21.63.63v.99h.12c.44-1.08 1.42-1.62 2.94-1.62h.96c3.14 0 4.71 1.63 4.71 4.89v9.78c0 .42-.22.63-.66.63h-2.52c-.42 0-.63-.21-.63-.63v-9.6c0-.64-.14-1.09-.42-1.35-.26-.28-.71-.42-1.35-.42h-1.08c-1.38 0-2.07.76-2.07 2.28v9.09c0 .42-.21.63-.63.63zm18.313 0h-5.7c-.4 0-.6-.21-.6-.63v-1.92c0-.22.04-.37.12-.45.08-.1.24-.15.48-.15h5.01c.98 0 1.47-.3 1.47-.9v-.15c0-.48-.41-.94-1.23-1.38l-2.97-1.65c-1.02-.52-1.77-1.08-2.25-1.68-.48-.6-.72-1.37-.72-2.31 0-1.4.37-2.43 1.11-3.09.74-.66 1.9-.99 3.48-.99h5.01c.4 0 .6.21.6.63v1.95c0 .22-.04.38-.12.48-.08.08-.24.12-.48.12h-4.17c-.98 0-1.47.25-1.47.75v.15c0 .44.43.89 1.29 1.35l3.03 1.8c1.04.56 1.77 1.14 2.19 1.74.42.58.63 1.35.63 2.31 0 2.68-1.57 4.02-4.71 4.02zm13.635 0h-2.52c-.44 0-.66-.21-.66-.63V23.34c0-.22-.11-.33-.33-.33h-3.42c-.42 0-.63-.21-.63-.63v-2.04c0-.42.21-.63.63-.63h11.34c.42 0 .63.21.63.63v2.04c0 .42-.21.63-.63.63h-3.42c-.24 0-.36.11-.36.33v15.03c0 .42-.21.63-.63.63zm7.18-17.88v-2.61c0-.4.2-.6.6-.6h2.61c.4 0 .6.19.6.57v2.64c0 .4-.2.6-.6.6h-2.61c-.4 0-.6-.2-.6-.6zm0 17.25V24.33c0-.42.2-.63.6-.63h2.58c.42 0 .63.21.63.63v14.04c0 .26-.05.43-.15.51-.08.08-.23.12-.45.12h-2.58c-.42 0-.63-.21-.63-.63zm10.443.63h-2.55c-.42 0-.63-.21-.63-.63V24.33c0-.42.21-.63.63-.63h2.55c.42 0 .63.21.63.63v.99h.12c.24-.48.64-.87 1.2-1.17.58-.3 1.24-.45 1.98-.45h.84c1.74 0 2.99.64 3.75 1.92.68-1.28 1.85-1.92 3.51-1.92h.87c1.54 0 2.7.42 3.48 1.26.8.84 1.2 2.05 1.2 3.63v9.78c0 .42-.21.63-.63.63h-2.55c-.42 0-.63-.21-.63-.63v-9.6c0-.64-.13-1.09-.39-1.35-.26-.28-.71-.42-1.35-.42h-.75c-1.38 0-2.07.77-2.07 2.31v9.06c0 .42-.22.63-.66.63h-2.52c-.42 0-.63-.21-.63-.63v-9.6c0-.64-.14-1.09-.42-1.35-.26-.28-.71-.42-1.35-.42h-.93c-1.38 0-2.07.76-2.07 2.28v9.09c0 .42-.21.63-.63.63zm32.035 0h-6.63c-1.58 0-2.8-.42-3.66-1.26-.86-.84-1.29-2.05-1.29-3.63v-5.52c0-1.58.43-2.79 1.29-3.63.86-.84 2.08-1.26 3.66-1.26h2.37c1.58 0 2.8.42 3.66 1.26.86.84 1.29 2.05 1.29 3.63v3.81c0 .42-.21.63-.63.63h-7.53c-.24 0-.36.11-.36.33v.66c0 .62.13 1.07.39 1.35.28.26.74.39 1.38.39h6.06c.42 0 .63.22.63.66v1.98c0 .22-.05.38-.15.48-.08.08-.24.12-.48.12zm-7.47-8.52h4.08c.22 0 .33-.11.33-.33v-1.44c0-.64-.13-1.09-.39-1.35s-.71-.39-1.35-.39h-1.26c-.64 0-1.09.13-1.35.39s-.39.71-.39 1.35v1.44c0 .22.11.33.33.33zM183.176 39h-5.7c-.4 0-.6-.21-.6-.63v-1.92c0-.22.04-.37.12-.45.08-.1.24-.15.48-.15h5.01c.98 0 1.47-.3 1.47-.9v-.15c0-.48-.41-.94-1.23-1.38l-2.97-1.65c-1.02-.52-1.77-1.08-2.25-1.68-.48-.6-.72-1.37-.72-2.31 0-1.4.37-2.43 1.11-3.09.74-.66 1.9-.99 3.48-.99h5.01c.4 0 .6.21.6.63v1.95c0 .22-.04.38-.12.48-.08.08-.24.12-.48.12h-4.17c-.98 0-1.47.25-1.47.75v.15c0 .44.43.89 1.29 1.35l3.03 1.8c1.04.56 1.77 1.14 2.19 1.74.42.58.63 1.35.63 2.31 0 2.68-1.57 4.02-4.71 4.02z" fill="#fff"/><path d="M.215 17.996v24l20.784 12.005 20.784-12.005-41.568-24z" fill="#333F4D"/><path d="M.215 17.996v24l41.568-24L20.999 6 .215 17.996z" fill="#D38E25"/></svg>